# xmcd
#
# Track frame offsets:
#	150
#	19876
#	32742
#	52135
#	70686
#	88975
#	105195
#	121997
#	139121
#	155313
#
# Disc length: 2271 seconds
#
# Revision: 3
# Processed by: cddbd v1.5.2PL0 Copyright (c) Steve Scherf et al.
# Submitted via: EasyCDDAExtractor 16.0.1.1
#
DISCID=8008dd0a
DTITLE=Rodney Crowell - Kin: Songs By Mary Karr and Rodney Crowell
DYEAR=2012
DGENRE=Country
TTITLE0=Rodney Crowell - Anything But Tame 
TTITLE1=Norah Jones - If The Law Dont Want You
TTITLE2=Vince Gill - Just Pleasing You
TTITLE3=Lucinda Williams - God I´m Missing You 
TTITLE4=Rodney Crowell - I´m A Mess
TTITLE5=Lee Ann Womack - Momma's On A Roll
TTITLE6=Rosanne Cash - Sister Oh Sister 
TTITLE7=Rodney Crowell and Kris Kristofferson - My Father's Advice
TTITLE8=Emmylou Harris - Long Time Girl Gone By
TTITLE9=Rodney Crowell - Hungry For Home
EXTD=YEAR: 2012
EXTT0=
EXTT1=
EXTT2=
EXTT3=
EXTT4=
EXTT5=
EXTT6=
EXTT7=
EXTT8=
EXTT9=
PLAYORDER=
